# AST/ASF file generated using VICON BodyLanguage
# -----------------------------------------------
:version 1.10
:name VICON
:units
  mass 1.0
  length 0.45
  angle deg
:documentation
   .ast/.asf automatically generated from VICON data using
   VICON BodyBuilder and BodyLanguage model FoxedUp or BRILLIANT.MOD
:root
   order TX TY TZ RX RY RZ
   axis XYZ
   position 0 0 0  
   orientation 0 0 0 
:bonedata
  begin
     id 1 
     name lhipjoint
     direction 0.596438 -0.722117 0.35044 
     length 2.43043 
     axis 0 0 0  XYZ
  end
  begin
     id 2 
     name lfemur
     direction 0.34202 -0.939693 0  
     length 7.0339  
     axis 0 0 20  XYZ
    dof rx ry rz
    limits (-160.0 20.0)
           (-70.0 70.0)
           (-60.0 70.0)
  end
  begin
     id 3 
     name ltibia
     direction 0.34202 -0.939693 0   
     length 7.56602   
     axis 0 0 20   XYZ
    dof rx
    limits (-10.0 170.0)
  end
  begin
     id 4 
     name lfoot
     direction 0.0985677 -0.270812 0.957572   
     length 1.85172   
     axis -90 7.62852e-016 20   XYZ
    dof rx rz
    limits (-45.0 90.0)
           (-70.0 20.0)
  end
  begin
     id 5 
     name ltoes
     direction 1.53534e-011 -4.21843e-011 1   
     length 0.929904   
     axis -90 7.62852e-016 20   XYZ
    dof rx
    limits (-90.0 20.0)
  end
  begin
     id 6 
     name rhipjoint
     direction -0.585088 -0.729594 0.354068   
     length 2.40552  
     axis 0 0 0  XYZ 
  end
  begin
     id 7 
     name rfemur
     direction -0.34202 -0.939693 0   
     length 7.12573   
     axis 0 0 -20   XYZ
    dof rx ry rz
    limits (-160.0 20.0)
           (-70.0 70.0)
           (-70.0 60.0)
  end
  begin
     id 8 
     name rtibia
     direction -0.34202 -0.939693 0   
     length 7.35777   
     axis 0 0 -20   XYZ
    dof rx
    limits (-10.0 170.0)
 end
 begin
     id 9 
     name rfoot
     direction -0.120907 -0.33219 0.935431   
     length 2.0994  
     axis -90 -7.62852e-016 -20   XYZ
    dof rx rz
    limits (-45.0 90.0)
           (-20.0 70.0)
  end
  begin
     id 10 
     name rtoes
     direction -1.53577e-011 -4.21787e-011 1   
     length 1.04244   
     axis -90 -7.62852e-016 -20   XYZ
    dof rx
    limits (-90.0 20.0)
  end
  begin
     id 11 
     name lowerback
     direction 0.00268363 0.993603 -0.112896   
     length 2.15839   
     axis 0 0 0   XYZ
    dof rx ry rz
    limits (-20.0 45.0)
           (-30.0 30.0)
           (-30.0 30.0)
  end
  begin
     id 12 
     name upperback
     direction 0.0272563 0.999411 -0.0208618   
     length 2.16443   
     axis 0 0 0   XYZ
    dof rx ry rz
    limits (-20.0 45.0)
           (-30.0 30.0)
           (-30.0 30.0)
  end
  begin
     id 13 
     name thorax
     direction 0.0254655 0.999174 0.0316806   
     length 2.19003   
     axis 0 0 0   XYZ
    dof rx ry rz
    limits (-20.0 45.0)
           (-30.0 30.0)
           (-30.0 30.0)
  end
  begin
     id 14 
     name lowerneck
     direction -0.0102178 0.988048 0.15381   
     length 1.61507   
     axis 0 0 0   XYZ
    dof rx ry rz
    limits (-20.0 45.0)
           (-30.0 30.0)
           (-30.0 30.0)
  end
  begin
     id 15 
     name upperneck
     direction -0.0061965 0.994088 -0.108398   
     length 1.64042   
     axis 0 0 0   XYZ
    dof rx ry rz
    limits (-20.0 45.0)
           (-30.0 30.0)
           (-30.0 30.0)
  end
  begin
     id 16
     name head
     direction -0.00151929 0.998591 -0.0530385  
     length 1.64343  
     axis 0 0 0   XYZ
    dof rx ry rz
    limits (-20.0 45.0)
           (-30.0 30.0)
           (-30.0 30.0)
  end
  begin
     id 17 
     name lclavicle
     direction 0.948974 0.284245 -0.136574  
     length 3.3483  
     axis 0 0 0   XYZ
    dof ry rz
    limits (-20.0 10.0)
           (0.0 20.0)
  end
  begin
     id 18 
     name lhumerus
     direction 1 -4.48961e-011 1.68576e-027   
     length 4.93485   
     axis -180 -30 -90   XYZ
    dof rx ry rz
    limits (-60.0 90.0)
           (-90.0 90.0)
           (-90.0 90.0)
  end
  begin
     id 19
     name lradius
     direction 1 -4.48965e-011 -2.46405e-027   
     length 3.41719   
     axis -180 -30 -90   XYZ
    dof rx
    limits (-10.0 170.0)
  end
  begin
     id 20
     name lwrist
     direction 1 -4.48968e-011 -8.00486e-028   
     length 1.7086   
     axis 3.27501e-015 90 90   XYZ
    dof ry
    limits (-180.0 0.0)
 end
  begin
     id 21 
     name lhand
     direction 1 -4.48977e-011 -1.60161e-027   
     length 0.6241   
     axis 1.02148e-015 90 90   XYZ
    dof rx rz
    limits (-90.0 90.0)
           (-45.0 45.0)
  end
  begin
     id 22 
     name lfingers
     direction 1 -4.49049e-011 -3.21275e-027   
     length 0.503166   
     axis 2.04295e-015 90 90   XYZ
    dof rx
    limits (0.0 90.0)
  end
  begin
     id 23
     name lthumb
     direction 0.707107 -6.34975e-011 0.707107   
     length 0.722448   
     axis -90 45 -1.62303e-014   XYZ
    dof rx rz
    limits (-45.0 45.0)
           (-45.0 45.0)
  end
  begin
     id 24 
     name rclavicle
     direction -0.904485 0.355099 -0.236246   
     length 3.18329  
     axis 0 0 0   XYZ 
    dof ry rz
    limits (-10.0 20.0)
           (-20.0 0.0)
  end
  begin
     id 25 
     name rhumerus
     direction -1 -4.48953e-011 1.32816e-027  
     length 5.22034   
     axis -180 30 90   XYZ
    dof rx ry rz
    limits (-90.0 60.0)
           (-90.0 90.0)
           (-90.0 90.0)
  end
  begin
     id 26 
     name rradius
     direction -1 -4.48965e-011 -3.93727e-027   
     length 3.41809   
     axis -180 30 90   XYZ
    dof rx
    limits (-10.0 170.0)
  end
  begin
     id 27 
     name rwrist
     direction -1 -4.48962e-011 -8.003e-028   
     length 1.70904   
     axis 3.27501e-015 -90 -90   XYZ
    dof ry
    limits (-180.0 0.0)
  end
  begin
     id 28
     name rhand
     direction -1 -4.49008e-011 -1.60365e-027   
     length 0.77534   
     axis 1.02148e-015 -90 -90   XYZ
    dof rx rz
    limits (-90.0 90.0)
           (-45.0 45.0)
  end
  begin
     id 29
     name rfingers
     direction -1 -4.49001e-011 -3.2064e-027   
     length 0.625099   
     axis 2.04295e-015 -90 -90   XYZ
    dof rx
    limits (0.0 90.0)
  end
  begin
     id 30
     name rthumb
     direction -0.707107 -6.34989e-011 0.707107   
     length 0.897521   
     axis -90 -45 1.62303e-014   XYZ
    dof rx rz
    limits (-45.0 45.0)
           (-45.0 45.0)
  end
:hierarchy
  begin
    root lhipjoint rhipjoint lowerback
    lhipjoint lfemur
    lfemur ltibia
    ltibia lfoot
    lfoot ltoes
    rhipjoint rfemur
    rfemur rtibia
    rtibia rfoot
    rfoot rtoes
    lowerback upperback
    upperback thorax
    thorax lowerneck lclavicle rclavicle
    lowerneck upperneck
    upperneck head
    lclavicle lhumerus
    lhumerus lradius
    lradius lwrist
    lwrist lhand lthumb
    lhand lfingers
    rclavicle rhumerus
    rhumerus rradius
    rradius rwrist
    rwrist rhand rthumb
    rhand rfingers
  end

#!OML:ASF \\sashay\E\Suitcase\Project 1\Capture day 1\Session 1\Male1.ASF
:FULLY-SPECIFIED
:DEGREES
594
root -0.0494637 17.5514 -14.3688 6.67441 9.25081 -4.41832
lowerback 5.17355 -0.990739 4.66201
upperback 0.706219 -0.96547 3.56429
thorax -2.19057 -0.503556 1.12686
lowerneck -11.5455 -0.248333 -4.92749
upperneck 26.5746 0.980349 -0.564642
head 10.3898 -0.0867687 0.764691
rclavicle -8.15017e-015 1.27222e-014
rhumerus -43.219 -34.9214 -56.2275
rradius 15.0797
rwrist 0.917802
rhand -6.5488 15.3413
rfingers 7.12502
rthumb 19.3047 -13.7205
lclavicle -8.15017e-015 1.27222e-014
lhumerus -39.3064 -3.51718 85.4039
lradius 37.6359
lwrist 0.667627
lhand -0.0249335 42.7509
lfingers 7.12502
lthumb 25.5665 71.0551
rfemur -9.69085 -0.925419 30.346
rtibia 20.0305
rfoot -17.4143 -9.1943
rtoes 16.0783
lfemur -30.1161 -2.5326 -13.8666
ltibia 60.1854
lfoot -12.0586 -5.728
ltoes 19.4345
595
root -0.0655897 17.5299 -14.2445 6.51628 9.05599 -4.78928
lowerback 5.4958 -0.865677 4.9304
upperback 0.710027 -0.757341 3.61716
thorax -2.36692 -0.40427 1.02254
lowerneck -11.5252 -0.263797 -5.01368
upperneck 26.5927 0.943802 -0.436849
head 10.3919 -0.0971359 0.82048
rclavicle -8.94531e-015 -3.49861e-014
rhumerus -43.8633 -34.6958 -56.1328
rradius 15.3347
rwrist 1.01879
rhand -6.8605 14.9394
rfingers 7.12502
rthumb 19.005 -14.1521
lclavicle -8.94531e-015 -3.49861e-014
lhumerus -39.4964 -3.18609 85.0165
lradius 37.6124
lwrist 1.18604
lhand 0.0658268 42.2948
lfingers 7.12502
lthumb 25.6534 70.5865
rfemur -9.18397 -0.563654 30.887
rtibia 20.1523
rfoot -17.7585 -9.47465
rtoes 15.8196
lfemur -30.6278 -2.53107 -13.4994
ltibia 59.2012
lfoot -12.6936 -5.0605
ltoes 19.1311
596
root -0.0647615 17.5277 -14.1199 6.90951 9.01515 -4.44273
lowerback 5.15183 -0.776009 4.53399
upperback 0.703786 -0.689541 3.53105
thorax -2.17559 -0.365214 1.14385
lowerneck -11.5073 -0.298343 -4.86458
upperneck 26.5249 0.888751 -0.548082
head 10.3658 -0.118651 0.748613
rclavicle 6.36111e-015 -4.53229e-014
rhumerus -44.4509 -35.6029 -55.0082
rradius 14.7783
rwrist 2.44411
rhand -7.00772 15.027
rfingers 7.12502
rthumb 18.8634 -14.0784
lclavicle 6.36111e-015 -4.53229e-014
lhumerus -39.8257 -2.47632 84.6702
lradius 37.7218
lwrist 1.34488
lhand 0.111699 42.2187
lfingers 7.12502
lthumb 25.6974 70.504
rfemur -9.08966 -0.687385 30.5961
rtibia 20.1142
rfoot -17.9478 -9.45637
rtoes 15.3616
lfemur -31.5003 -2.79536 -13.9873
ltibia 58.0219
lfoot -13.2071 -4.25752
ltoes 18.8297
597
root -0.0710961 17.5071 -13.9962 6.88506 8.91928 -4.73267
lowerback 5.10378 -0.652156 4.79446
upperback 0.882596 -0.52253 3.58529
thorax -1.96353 -0.279061 1.04042
lowerneck -11.7499 -0.401147 -4.90853
upperneck 26.4778 0.759282 -0.514908
head 10.399 -0.17835 0.752443
rclavicle 1.44119e-014 5.80451e-014
rhumerus -44.5217 -35.7572 -55.0115
rradius 14.7207
rwrist 2.3168
rhand -6.88172 15.33
rfingers 7.12502
rthumb 18.9846 -13.7635
lclavicle 1.44119e-014 5.80451e-014
lhumerus -39.5529 -2.25693 84.4518
lradius 37.418
lwrist 1.71138
lhand 0.112262 42.0923
lfingers 7.12502
lthumb 25.6979 70.3776
rfemur -8.62921 -0.465271 31.0353
rtibia 20.0591
rfoot -18.2049 -9.74986
rtoes 14.8772
lfemur -32.0821 -2.81709 -13.75
ltibia 56.8438
lfoot -13.7065 -3.66789
ltoes 18.4385
598
root -0.0711003 17.5121 -13.8708 7.13118 8.60252 -4.50392
lowerback 5.30249 -0.593022 4.59058
upperback 0.633713 -0.429274 3.48605
thorax -2.32959 -0.239059 1.04988
lowerneck -11.4847 -0.347632 -4.99407
upperneck 26.5301 0.829726 -0.480051
head 10.3645 -0.150392 0.787688
rclavicle 5.87409e-014 -1.98785e-014
rhumerus -44.7411 -34.4672 -55.6194
rradius 14.9869
rwrist 1.53521
rhand -6.88473 14.2898
rfingers 7.12502
rthumb 18.9817 -14.804
lclavicle 5.87409e-014 -1.98785e-014
lhumerus -40.1846 -1.64179 84.0406
lradius 37.3932
lwrist 2.13316
lhand 0.00901699 42.5464
lfingers 7.12502
lthumb 25.599 70.8459
rfemur -8.28415 -0.419202 30.8459
rtibia 19.8185
rfoot -18.2724 -9.72598
rtoes 14.3278
lfemur -32.6612 -2.85777 -14.1433
ltibia 55.4186
lfoot -14.1149 -2.89488
ltoes 17.8769
599
root -0.0634712 17.5042 -13.7519 7.30957 8.72623 -4.31896
lowerback 5.19748 -0.605104 4.55649
upperback 0.693226 -0.460097 3.41509
thorax -2.20997 -0.252243 0.995912
lowerneck -11.5749 -0.392242 -4.99783
upperneck 26.4674 0.783085 -0.521232
head 10.3608 -0.175911 0.767967
rclavicle 1.74931e-014 1.35174e-014
rhumerus -44.9886 -34.7448 -55.1732
rradius 14.6741
rwrist 1.9476
rhand -6.9379 14.2935
rfingers 7.12502
rthumb 18.9306 -14.8053
lclavicle 1.74931e-014 1.35174e-014
lhumerus -40.2394 -0.962402 83.6552
lradius 37.2843
lwrist 2.34772
lhand 0.0486957 42.3036
lfingers 7.12502
lthumb 25.637 70.5977
rfemur -7.82107 -0.359584 30.7404
rtibia 19.4684
rfoot -18.4582 -10.1187
rtoes 13.9683
lfemur -33.2785 -3.1763 -14.4942
ltibia 53.9523
lfoot -14.456 -2.27562
ltoes 16.9042
600
root -0.076346 17.4994 -13.6256 7.33056 8.56804 -4.70447
lowerback 5.12971 -0.433263 4.77822
upperback 0.757135 -0.226363 3.46367
thorax -2.10287 -0.13525 0.904789
lowerneck -11.452 -0.489394 -4.80619
upperneck 26.338 0.599731 -0.550448
head 10.2932 -0.240877 0.702307
rclavicle -1.799e-014 -2.8625e-014
rhumerus -45.7683 -35.9324 -53.9917
rradius 14.2679
rwrist 3.1122
rhand -6.56383 14.6698
rfingers 7.12502
rthumb 19.2903 -14.3934
lclavicle -1.799e-014 -2.8625e-014
lhumerus -40.4109 -1.12531 83.4312
lradius 37.1569
lwrist 2.73188
lhand -0.192366 40.8274
lfingers 7.12502
lthumb 25.4061 69.1545
rfemur -7.26608 -0.143106 31.3128
rtibia 19.0711
rfoot -18.5338 -10.3817
rtoes 13.6698
lfemur -33.7542 -3.10039 -14.1518
ltibia 52.4091
lfoot -14.7965 -1.77384
ltoes 15.3196
601
root -0.0699979 17.5028 -13.4973 7.54271 8.48354 -4.29308
lowerback 5.22704 -0.464479 4.42047
upperback 0.685672 -0.278722 3.40328
thorax -2.23074 -0.161311 1.04702
lowerneck -11.6073 -0.448432 -5.07837
upperneck 26.4054 0.715825 -0.494
head 10.3461 -0.210162 0.783019
rclavicle 1.04362e-014 -2.14687e-014
rhumerus -45.9871 -35.5166 -53.9217
rradius 14.45
rwrist 2.82271
rhand -6.54232 14.5207
rfingers 7.12502
rthumb 19.311 -14.5405
lclavicle 1.04362e-014 -2.14687e-014
lhumerus -40.7292 0.00474265 82.9961
lradius 37.1382
lwrist 2.87098
lhand 0.0831824 41.7748
lfingers 7.12502
lthumb 25.67 70.0641
rfemur -6.66644 -0.104365 30.9505
rtibia 18.5091
rfoot -18.5897 -10.5813
rtoes 13.4168
lfemur -34.1721 -3.14404 -14.7975
ltibia 50.7771
lfoot -15.185 -1.28818
ltoes 13.3896
602
root -0.0709639 17.4898 -13.3818 7.71889 8.18389 -4.36137
lowerback 5.23544 -0.339412 4.43893
upperback 0.619986 -0.108523 3.35791
thorax -2.30095 -0.078524 0.97822
lowerneck -11.3541 -0.460976 -4.95096
upperneck 26.2577 0.653495 -0.510808
head 10.2436 -0.223967 0.747049
rclavicle 2.78299e-015 1.82882e-014
rhumerus -46.5351 -35.7775 -53.3157
rradius 14.0362
rwrist 3.47124
rhand -6.82415 13.5963
rfingers 7.12502
rthumb 19.0399 -15.4918
lclavicle 2.78299e-015 1.82882e-014
lhumerus -40.9695 0.231715 82.731
lradius 36.9232
lwrist 2.88632
lhand -0.117731 43.1335
lfingers 7.12502
lthumb 25.4776 71.4504
rfemur -6.18021 -0.0427813 31.0979
rtibia 17.9694
rfoot -18.4951 -10.5916
rtoes 12.9623
lfemur -34.6882 -3.20542 -14.8612
ltibia 49.1402
lfoot -15.4502 -0.64688
ltoes 11.3735
603
root -0.0763079 17.484 -13.2595 7.62438 8.06545 -4.76821
lowerback 5.1944 -0.324671 4.88541
upperback 0.921499 -0.0825757 3.38746
thorax -1.96668 -0.0610739 0.755785
lowerneck -11.8077 -0.476727 -4.99756
upperneck 26.1378 0.638122 -0.405752
head 10.2876 -0.223651 0.790312
rclavicle 7.85199e-015 2.62396e-014
rhumerus -46.492 -36.3665 -53.124
rradius 13.8746
rwrist 4.14589
rhand -6.61995 13.6149
rfingers 7.12502
rthumb 19.2363 -15.4537
lclavicle 7.85199e-015 2.62396e-014
lhumerus -40.6736 0.586279 82.3123
lradius 36.4998
lwrist 3.05749
lhand -0.433532 41.7631
lfingers 7.12502
lthumb 25.1751 70.1229
rfemur -5.32399 0.409177 31.6918
rtibia 17.2654
rfoot -18.4962 -11.1591
rtoes 12.5351
lfemur -34.9483 -3.07981 -14.5578
ltibia 47.4618
lfoot -15.7044 -0.44351
ltoes 9.47888
604
root -0.0766426 17.4805 -13.1375 8.01323 8.12824 -4.18913
lowerback 5.22607 -0.244446 4.29601
upperback 0.615718 0.004972 3.20357
thorax -2.29815 -0.0215078 0.89037
lowerneck -11.3632 -0.584146 -4.89656
upperneck 26.1142 0.437428 -0.410021
head 10.197 -0.303514 0.747126
rclavicle 2.78299e-014 2.54444e-014
rhumerus -47.4841 -36.7365 -52.0189
rradius 13.5952
rwrist 4.83891
rhand -6.47089 13.9912
rfingers 7.12502
rthumb 19.3796 -15.0631
lclavicle 2.78299e-014 2.54444e-014
lhumerus -41.4479 0.422954 82.1638
lradius 36.7645
lwrist 3.26348
lhand -0.318503 43.1585
lfingers 7.12502
lthumb 25.2853 71.5027
rfemur -4.87977 0.313846 31.204
rtibia 16.6284
rfoot -18.5026 -11.4005
rtoes 12.0681
lfemur -35.5286 -3.28918 -15.3352
ltibia 45.7185
lfoot -15.8488 -0.268628
ltoes 7.67271
605
root -0.0840694 17.4706 -13.004 7.7903 7.85704 -4.72513
lowerback 5.36786 -0.239766 4.58994
upperback 0.869023 0.0305655 3.43599
thorax -2.1157 -0.00546082 0.963944
lowerneck -11.8446 -0.553283 -5.15208
upperneck 26.1133 0.550001 -0.341718
head 10.2883 -0.271501 0.828451
rclavicle -1.05356e-014 -7.15625e-015
rhumerus -47.5299 -37.0826 -51.4658
rradius 13.2869
rwrist 5.81116
rhand -6.32587 13.9712
rfingers 7.12502
rthumb 19.5191 -15.069
lclavicle -1.05356e-014 -7.15625e-015
lhumerus -41.4492 1.08562 81.8798
lradius 36.488
lwrist 3.08036
lhand -0.20023 43.1642
lfingers 7.12502
lthumb 25.3986 71.4924
rfemur -3.76523 1.1456 31.9594
rtibia 15.7848
rfoot -18.4905 -12.1972
rtoes 11.7743
lfemur -35.5524 -3.15404 -14.8767
ltibia 43.986
lfoot -15.984 -0.153702
ltoes 5.97432
